<svg width="193" height="26" viewBox="0 0 193 26" fill="none" xmlns="http://www.w3.org/2000/svg">
<path d="M136.401 13.6805C136.401 15.5784 136.121 17.2276 135.559 18.6307C134.999 20.0339 134.203 21.2045 133.17 22.1426C132.138 23.0807 130.898 23.7783 129.444 24.2298C127.993 24.684 126.386 24.9111 124.624 24.9111C123.784 24.9111 122.832 24.8732 121.771 24.8002C120.708 24.7245 119.699 24.5731 118.738 24.3406V3.05558C119.699 2.82308 120.721 2.67709 121.802 2.6122C122.883 2.54732 123.843 2.51758 124.686 2.51758C126.427 2.51758 128.022 2.73386 129.462 3.16643C130.905 3.599 132.141 4.27218 133.173 5.18868C134.203 6.10518 134.999 7.265 135.561 8.66815C136.121 10.0713 136.401 11.7421 136.401 13.6805ZM122.521 21.3667C122.742 21.3883 123.032 21.4046 123.391 21.4154C123.751 21.4262 124.241 21.4316 124.863 21.4316C127.408 21.4316 129.303 20.753 130.556 19.3931C131.807 18.0332 132.433 16.1299 132.433 13.6832C132.433 11.196 131.822 9.28726 130.6 7.95982C129.377 6.63238 127.485 5.9673 124.922 5.9673C123.802 5.9673 123.001 5.99704 122.518 6.06193V21.3667H122.521Z" fill="#1F295A"/>
<path d="M56.67 16.3704C56.67 17.6789 56.4877 18.8685 56.1282 19.9445C55.7687 21.0205 55.2576 21.937 54.5976 22.6967C53.9351 23.4564 53.139 24.0458 52.2094 24.4703C51.2772 24.892 50.2526 25.1029 49.1304 25.1029C48.0082 25.1029 46.9861 24.892 46.0668 24.4703C45.1475 24.0485 44.3565 23.4564 43.694 22.6967C43.0315 21.937 42.5179 21.0205 42.1455 19.9445C41.7757 18.8712 41.5908 17.6789 41.5908 16.3704C41.5908 15.0619 41.7757 13.8778 42.1455 12.8126C42.5153 11.7474 43.0366 10.8363 43.7068 10.0766C44.3771 9.31958 45.1732 8.73291 46.0951 8.32198C47.0144 7.91104 48.0262 7.70557 49.1304 7.70557C50.2321 7.70557 51.249 7.91104 52.1812 8.32198C53.1134 8.73291 53.9094 9.31958 54.5694 10.0766C55.2319 10.8363 55.7455 11.7474 56.1179 12.8126C56.4851 13.8751 56.67 15.0619 56.67 16.3704ZM52.9439 16.3704C52.9439 14.7267 52.6075 13.4236 51.9372 12.4638C51.267 11.504 50.3297 11.0255 49.1278 11.0255C47.926 11.0255 46.9887 11.504 46.3185 12.4638C45.6482 13.4236 45.3118 14.724 45.3118 16.3704C45.3118 18.0385 45.6457 19.3551 46.3185 20.323C46.9887 21.2936 47.926 21.7775 49.1278 21.7775C50.3297 21.7775 51.2644 21.2936 51.9372 20.323C52.61 19.3524 52.9439 18.0358 52.9439 16.3704Z" fill="#1F295A"/>
<path d="M62.8323 21.9044C63.7927 21.9044 64.4937 21.7827 64.9354 21.5394C65.3746 21.2988 65.5954 20.8797 65.5954 20.2903C65.5954 19.7415 65.3591 19.29 64.8892 18.9305C64.4193 18.5709 63.6412 18.1816 62.5626 17.7598C61.9001 17.5084 61.294 17.238 60.7445 16.9542C60.1924 16.6703 59.7173 16.3378 59.3167 15.9593C58.9161 15.5808 58.6002 15.1212 58.3717 14.5832C58.1405 14.0452 58.0276 13.3855 58.0276 12.6069C58.0276 11.0875 58.5591 9.89251 59.6197 9.01656C60.6803 8.14061 62.1235 7.70264 63.9468 7.70264C64.8687 7.70264 65.7495 7.79185 66.5918 7.97029C67.4315 8.15143 68.0632 8.32445 68.4844 8.49207L67.8244 11.5903C67.4238 11.4011 66.9128 11.2254 66.2939 11.0686C65.6724 10.909 64.9508 10.8306 64.1317 10.8306C63.3895 10.8306 62.7886 10.9631 62.3289 11.2254C61.8693 11.4903 61.6381 11.8958 61.6381 12.4447C61.6381 12.7177 61.6844 12.961 61.7717 13.1719C61.8616 13.3828 62.0182 13.5801 62.2365 13.7586C62.4573 13.937 62.7475 14.1154 63.107 14.2939C63.4665 14.475 63.9082 14.6589 64.4295 14.8481C65.2924 15.1861 66.0217 15.5186 66.6226 15.8457C67.2235 16.1728 67.7191 16.5405 68.1095 16.9515C68.4998 17.3624 68.7848 17.8328 68.9646 18.3573C69.1444 18.8845 69.2342 19.5171 69.2342 20.2552C69.2342 21.8368 68.6796 23.0344 67.5676 23.8428C66.4557 24.6539 64.8687 25.0594 62.804 25.0594C61.4224 25.0594 60.3105 24.9377 59.4682 24.6971C58.6259 24.4538 58.0378 24.2592 57.6963 24.1105L58.328 20.9149C58.8699 21.1474 59.5144 21.3691 60.2668 21.5799C61.0141 21.7989 61.8693 21.9044 62.8323 21.9044Z" fill="#1F295A"/>
<path d="M75.5182 21.9044C76.4786 21.9044 77.1797 21.7827 77.6214 21.5394C78.0605 21.2988 78.2813 20.8797 78.2813 20.2903C78.2813 19.7415 78.0451 19.29 77.5751 18.9305C77.1052 18.5709 76.3271 18.1816 75.2485 17.7598C74.586 17.5084 73.9799 17.238 73.4304 16.9542C72.8783 16.6703 72.4032 16.3378 72.0026 15.9593C71.602 15.5808 71.2861 15.1212 71.0576 14.5832C70.8265 14.0452 70.7135 13.3855 70.7135 12.6069C70.7135 11.0875 71.245 9.89251 72.3056 9.01656C73.3662 8.14061 74.8094 7.70264 76.6327 7.70264C77.5546 7.70264 78.4354 7.79185 79.2777 7.97029C80.1174 8.15143 80.7492 8.32445 81.1703 8.49207L80.5103 11.5903C80.1097 11.4011 79.5987 11.2254 78.9798 11.0686C78.3584 10.909 77.6368 10.8306 76.8176 10.8306C76.0754 10.8306 75.4745 10.9631 75.0148 11.2254C74.5552 11.4903 74.3241 11.8958 74.3241 12.4447C74.3241 12.7177 74.3703 12.961 74.4576 13.1719C74.5475 13.3828 74.7041 13.5801 74.9224 13.7586C75.1432 13.937 75.4334 14.1154 75.7929 14.2939C76.1525 14.475 76.5942 14.6589 77.1155 14.8481C77.9783 15.1861 78.7076 15.5186 79.3085 15.8457C79.9094 16.1728 80.4051 16.5405 80.7954 16.9515C81.1857 17.3624 81.4708 17.8328 81.6505 18.3573C81.8303 18.8845 81.9202 19.5171 81.9202 20.2552C81.9202 21.8368 81.3655 23.0344 80.2535 23.8428C79.1416 24.6539 77.5546 25.0594 75.4899 25.0594C74.1083 25.0594 72.9964 24.9377 72.1567 24.6971C71.3144 24.4538 70.7237 24.2592 70.3848 24.1105L71.0165 20.9149C71.5583 21.1474 72.2029 21.3691 72.9553 21.5799C73.7026 21.7989 74.5577 21.9044 75.5182 21.9044Z" fill="#1F295A"/>
<path d="M87.9376 3.27703C87.9376 3.99347 87.7167 4.56122 87.275 4.98567C86.8359 5.40743 86.3146 5.6183 85.7137 5.6183C85.0922 5.6183 84.5632 5.40743 84.1215 4.98567C83.6798 4.56392 83.459 3.99347 83.459 3.27703C83.459 2.53897 83.6798 1.96041 84.1215 1.53595C84.5607 1.1142 85.0922 0.90332 85.7137 0.90332C86.3146 0.90332 86.8359 1.1142 87.275 1.53595C87.7193 1.9577 87.9376 2.53626 87.9376 3.27703ZM87.5472 24.6567H83.9109V8.11368H87.5472V24.6567Z" fill="#1F295A"/>
<path d="M89.3115 16.4648C89.3115 15.0103 89.5144 13.7342 89.9253 12.6366C90.3362 11.539 90.8831 10.6279 91.5637 9.90062C92.2442 9.17337 93.0248 8.62455 93.9082 8.25686C94.789 7.88918 95.6904 7.70264 96.6123 7.70264C98.7746 7.70264 100.462 8.40826 101.674 9.82222C102.886 11.2362 103.492 13.3422 103.492 16.1485C103.492 16.3594 103.487 16.5973 103.477 16.8595C103.466 17.1245 103.451 17.3597 103.43 17.5706H93.0659C93.1661 18.898 93.6103 19.9281 94.4013 20.6553C95.1922 21.3826 96.3401 21.7476 97.8398 21.7476C98.7206 21.7476 99.527 21.6637 100.259 21.4934C100.988 21.3258 101.566 21.1447 101.987 20.9554L102.467 24.0861C102.267 24.1916 101.992 24.3024 101.64 24.4187C101.289 24.5349 100.891 24.6403 100.439 24.735C99.9867 24.8296 99.5013 24.9107 98.9826 24.9729C98.4613 25.0351 97.9323 25.0675 97.3904 25.0675C96.0088 25.0675 94.807 24.8512 93.785 24.4214C92.7629 23.9888 91.9232 23.3886 91.2606 22.6181C90.5981 21.8476 90.1102 20.9419 89.7892 19.8983C89.4707 18.8521 89.3115 17.7085 89.3115 16.4648ZM99.8557 14.7562C99.8557 14.229 99.7838 13.7288 99.6451 13.253C99.5039 12.7799 99.2984 12.3663 99.0288 12.0202C98.7591 11.6714 98.4279 11.3984 98.0375 11.1983C97.6472 10.9983 97.1824 10.8982 96.6406 10.8982C96.0807 10.8982 95.5903 11.0091 95.1691 11.2308C94.748 11.4525 94.3936 11.7444 94.1034 12.1013C93.8132 12.4609 93.5872 12.8718 93.428 13.3341C93.2662 13.7964 93.1558 14.2723 93.0967 14.7562H99.8557Z" fill="#1F295A"/>
<path d="M114.473 11.5634C114.172 11.4579 113.756 11.3471 113.224 11.2308C112.693 11.1173 112.079 11.0578 111.378 11.0578C110.977 11.0578 110.551 11.1011 110.102 11.1849C109.652 11.2687 109.337 11.3444 109.157 11.4066V24.6566H105.521V8.90577C106.222 8.63271 107.097 8.37317 108.15 8.13256C109.2 7.88924 110.369 7.76758 111.65 7.76758C111.889 7.76758 112.172 7.7838 112.49 7.81624C112.811 7.84868 113.129 7.89194 113.45 7.94331C113.771 7.99738 114.082 8.05956 114.383 8.13256C114.683 8.20826 114.925 8.27585 115.104 8.33803L114.473 11.5634Z" fill="#1F295A"/>
<path d="M142.026 3.27703C142.026 3.99347 141.806 4.56122 141.364 4.98567C140.925 5.40743 140.403 5.6183 139.803 5.6183C139.181 5.6183 138.652 5.40743 138.21 4.98567C137.769 4.56392 137.548 3.99347 137.548 3.27703C137.548 2.53897 137.769 1.96041 138.21 1.53595C138.65 1.1142 139.181 0.90332 139.803 0.90332C140.403 0.90332 140.925 1.1142 141.364 1.53595C141.806 1.9577 142.026 2.53626 142.026 3.27703ZM141.636 24.6567H138V8.11368H141.636V24.6567Z" fill="#1F295A"/>
<path d="M153.093 11.5634C152.792 11.4579 152.376 11.3471 151.845 11.2308C151.313 11.1173 150.699 11.0578 149.998 11.0578C149.598 11.0578 149.171 11.1011 148.722 11.1849C148.273 11.2687 147.957 11.3444 147.777 11.4066V24.6566H144.141V8.90577C144.842 8.63271 145.72 8.37317 146.77 8.13256C147.821 7.88924 148.989 7.76758 150.27 7.76758C150.509 7.76758 150.792 7.7838 151.11 7.81624C151.431 7.84868 151.75 7.89194 152.071 7.94331C152.392 7.99738 152.702 8.05956 153.003 8.13256C153.303 8.20826 153.545 8.27585 153.724 8.33803L153.093 11.5634Z" fill="#1F295A"/>
<path d="M153.724 16.4648C153.724 15.0103 153.927 13.7342 154.337 12.6366C154.748 11.539 155.295 10.6279 155.976 9.90062C156.656 9.17337 157.437 8.62455 158.32 8.25686C159.201 7.88918 160.103 7.70264 161.024 7.70264C163.187 7.70264 164.874 8.40826 166.086 9.82222C167.298 11.2362 167.904 13.3422 167.904 16.1485C167.904 16.3594 167.899 16.5973 167.889 16.8595C167.878 17.1245 167.863 17.3597 167.842 17.5706H157.478C157.578 18.898 158.022 19.9281 158.813 20.6553C159.604 21.3826 160.75 21.7476 162.252 21.7476C163.133 21.7476 163.939 21.6637 164.671 21.4934C165.4 21.3258 165.978 21.1447 166.399 20.9554L166.879 24.0861C166.679 24.1916 166.404 24.3024 166.053 24.4187C165.701 24.5349 165.303 24.6403 164.851 24.735C164.399 24.8296 163.913 24.9107 163.395 24.9729C162.873 25.0351 162.344 25.0675 161.803 25.0675C160.421 25.0675 159.219 24.8512 158.197 24.4214C157.178 23.9888 156.335 23.3886 155.673 22.6181C155.01 21.8476 154.522 20.9419 154.201 19.8983C153.883 18.8521 153.724 17.7085 153.724 16.4648ZM164.268 14.7562C164.268 14.229 164.196 13.7288 164.057 13.253C163.916 12.7799 163.711 12.3663 163.441 12.0202C163.171 11.6714 162.84 11.3984 162.45 11.1983C162.059 10.9983 161.595 10.8982 161.053 10.8982C160.493 10.8982 160.002 11.0091 159.581 11.2308C159.16 11.4525 158.806 11.7444 158.515 12.1013C158.225 12.4609 157.999 12.8718 157.84 13.3341C157.678 13.7964 157.568 14.2723 157.509 14.7562H164.268Z" fill="#1F295A"/>
<path d="M169.04 16.3997C169.04 15.1777 169.22 14.0341 169.579 12.9689C169.939 11.9037 170.455 10.9818 171.128 10.2005C171.798 9.42187 172.615 8.80816 173.578 8.36478C174.538 7.9214 175.619 7.69971 176.821 7.69971C178.303 7.69971 179.705 7.98358 181.027 8.55403L180.247 11.6847C179.826 11.4955 179.351 11.3387 178.819 11.2089C178.287 11.0818 177.722 11.0197 177.121 11.0197C175.699 11.0197 174.618 11.4901 173.876 12.4255C173.133 13.3636 172.764 14.6884 172.764 16.3943C172.764 18.0381 173.115 19.3412 173.814 20.3009C174.515 21.2607 175.696 21.7392 177.358 21.7392C177.979 21.7392 178.59 21.677 179.191 21.55C179.792 21.4229 180.314 21.2634 180.753 21.0742L181.264 24.2373C180.863 24.4482 180.257 24.6374 179.446 24.805C178.634 24.9727 177.797 25.0565 176.937 25.0565C175.594 25.0565 174.428 24.8402 173.436 24.4103C172.445 23.9778 171.623 23.3776 170.974 22.6071C170.321 21.8366 169.836 20.9201 169.518 19.8549C169.199 18.8005 169.04 17.6461 169.04 16.3997Z" fill="#1F295A"/>
<path d="M183.035 3.75031L186.671 3.11768V8.11383H192.259V11.3067H186.671V18.044C186.671 19.3714 186.871 20.3203 187.272 20.8881C187.673 21.4585 188.353 21.7424 189.314 21.7424C189.973 21.7424 190.562 21.6694 191.07 21.5207C191.581 21.3747 191.987 21.2368 192.287 21.1098L192.888 24.1459C192.467 24.3351 191.917 24.5298 191.234 24.7298C190.554 24.9299 189.753 25.0299 188.831 25.0299C187.709 25.0299 186.774 24.8704 186.021 24.5541C185.272 24.2378 184.673 23.7782 184.234 23.178C183.792 22.5778 183.484 21.8505 183.302 20.9962C183.122 20.1419 183.032 19.1686 183.032 18.071V3.75031H183.035Z" fill="#1F295A"/>
<path d="M39.6029 8.76525C39.0302 7.33237 38.1956 6.12118 37.1248 5.16953C36.0796 4.23951 34.8213 3.55281 33.3884 3.12024C32.0427 2.71741 30.5559 2.51465 28.9637 2.51465C28.8764 2.51465 19.9604 2.53628 18.946 2.59575L19.154 6.54293L28.3089 16.1811L35.2989 8.81932C35.6379 9.24377 35.9153 9.73312 36.1412 10.2982C36.4982 11.1957 36.6805 12.3177 36.6805 13.637C36.6805 14.9212 36.4982 16.0243 36.1412 16.9245C35.7894 17.8005 35.3143 18.5007 34.6878 19.0712C34.0432 19.6578 33.2728 20.0877 32.3278 20.3824C31.3211 20.6987 30.1732 20.8582 28.9149 20.8582C27.8543 20.8582 20.7718 20.8231 20.022 20.7717L18.9023 24.7162C19.8987 24.7865 28.8276 24.8108 28.9149 24.8108C30.5353 24.8108 32.0453 24.5945 33.3961 24.17C34.8393 23.7213 36.1001 23.0129 37.1402 22.064C38.2008 21.1015 39.0277 19.8876 39.6003 18.4575C40.155 17.0732 40.4375 15.4511 40.4375 13.637C40.4375 11.7878 40.1576 10.1495 39.6029 8.76525ZM24.4081 6.48616C26.4651 6.47534 28.4501 6.46994 28.9637 6.46994C30.0269 6.46994 31.0078 6.58619 31.9015 6.80788L28.3089 10.5928L24.4081 6.48616Z" fill="#1F295A"/>
<path d="M14.4417 18.9712H0.112305L1.11896 15.416H14.4417V18.9712Z" fill="#1F295A"/>
<path d="M14.4413 11.8582H4.75488L5.76153 8.30029H14.4413V11.8582Z" fill="#1F295A"/>
</svg>
