<svg width="135" height="18" viewBox="0 0 135 18" fill="none" xmlns="http://www.w3.org/2000/svg">
<path d="M95.1233 9.47038C95.1233 10.7843 94.9295 11.926 94.5401 12.8974C94.1526 13.8688 93.6014 14.6793 92.8867 15.3288C92.172 15.9782 91.3133 16.4611 90.3071 16.7737C89.3026 17.0881 88.1897 17.2454 86.9701 17.2454C86.3887 17.2454 85.7291 17.2192 84.9949 17.1686C84.2589 17.1162 83.5602 17.0114 82.8953 16.8504V2.11465C83.5602 1.95369 84.2678 1.85262 85.0162 1.8077C85.7647 1.76278 86.4296 1.74219 87.0127 1.74219C88.2181 1.74219 89.3222 1.89192 90.3195 2.19139C91.3187 2.49086 92.1738 2.95691 92.8885 3.59141C93.6014 4.22591 94.1526 5.02887 94.5419 6.00027C94.9295 6.97168 95.1233 8.12838 95.1233 9.47038ZM85.514 14.7916C85.6669 14.8066 85.8678 14.8178 86.1167 14.8253C86.3656 14.8328 86.7052 14.8365 87.1354 14.8365C88.8973 14.8365 90.2093 14.3667 91.0769 13.4253C91.9427 12.4838 92.3765 11.1661 92.3765 9.47225C92.3765 7.7503 91.9534 6.42889 91.1071 5.50989C90.2609 4.59089 88.9506 4.13046 87.1763 4.13046C86.4012 4.13046 85.8465 4.15105 85.5122 4.19597V14.7916H85.514Z" fill="white"/>
<path d="M39.925 11.3327C39.925 12.2386 39.7988 13.0622 39.5499 13.8071C39.301 14.552 38.9472 15.1865 38.4903 15.7125C38.0316 16.2384 37.4805 16.6465 36.8369 16.9403C36.1916 17.2323 35.4822 17.3783 34.7053 17.3783C33.9284 17.3783 33.2208 17.2323 32.5844 16.9403C31.9479 16.6483 31.4003 16.2384 30.9416 15.7125C30.483 15.1865 30.1274 14.552 29.8696 13.8071C29.6136 13.064 29.4856 12.2386 29.4856 11.3327C29.4856 10.4268 29.6136 9.60704 29.8696 8.8696C30.1256 8.13215 30.4865 7.5014 30.9505 6.97545C31.4145 6.45138 31.9657 6.04523 32.6039 5.76073C33.2404 5.47623 33.9408 5.33398 34.7053 5.33398C35.468 5.33398 36.172 5.47623 36.8174 5.76073C37.4627 6.04523 38.0139 6.45138 38.4708 6.97545C38.9294 7.5014 39.285 8.13215 39.5428 8.8696C39.797 9.60517 39.925 10.4268 39.925 11.3327ZM37.3454 11.3327C37.3454 10.1948 37.1125 9.2926 36.6485 8.62815C36.1845 7.9637 35.5356 7.63241 34.7035 7.63241C33.8715 7.63241 33.2226 7.9637 32.7586 8.62815C32.2946 9.2926 32.0617 10.1929 32.0617 11.3327C32.0617 12.4876 32.2928 13.3991 32.7586 14.0691C33.2226 14.7411 33.8715 15.0761 34.7035 15.0761C35.5356 15.0761 36.1827 14.7411 36.6485 14.0691C37.1143 13.3972 37.3454 12.4857 37.3454 11.3327Z" fill="white"/>
<path d="M44.1919 15.164C44.8568 15.164 45.3422 15.0798 45.6479 14.9113C45.952 14.7447 46.1048 14.4546 46.1048 14.0466C46.1048 13.6666 45.9413 13.3541 45.6159 13.1051C45.2906 12.8562 44.7519 12.5867 44.0052 12.2947C43.5465 12.1206 43.127 11.9335 42.7465 11.7369C42.3643 11.5404 42.0354 11.3102 41.758 11.0482C41.4807 10.7861 41.262 10.4679 41.1038 10.0955C40.9438 9.72301 40.8656 9.26631 40.8656 8.72727C40.8656 7.67538 41.2336 6.8481 41.9678 6.24167C42.7021 5.63524 43.7012 5.33203 44.9635 5.33203C45.6017 5.33203 46.2115 5.3938 46.7946 5.51733C47.376 5.64273 47.8133 5.76252 48.1049 5.87856L47.648 8.02351C47.3707 7.8925 47.0169 7.77084 46.5884 7.66228C46.1582 7.55185 45.6586 7.49757 45.0915 7.49757C44.5777 7.49757 44.1617 7.58928 43.8434 7.77084C43.5252 7.95426 43.3652 8.23502 43.3652 8.61497C43.3652 8.80401 43.3972 8.97246 43.4577 9.11845C43.5199 9.26444 43.6283 9.40108 43.7794 9.52461C43.9323 9.64814 44.1332 9.77167 44.3821 9.8952C44.631 10.0206 44.9368 10.1479 45.2977 10.2789C45.8951 10.5129 46.4 10.7431 46.816 10.9695C47.232 11.196 47.5751 11.4506 47.8453 11.7351C48.1156 12.0196 48.3129 12.3452 48.4374 12.7083C48.5618 13.0733 48.624 13.5113 48.624 14.0223C48.624 15.1172 48.24 15.9464 47.4702 16.506C46.7004 17.0675 45.6017 17.3483 44.1723 17.3483C43.2159 17.3483 42.4461 17.264 41.8629 17.0974C41.2798 16.929 40.8727 16.7942 40.6362 16.6913L41.0736 14.479C41.4487 14.6399 41.8949 14.7934 42.4158 14.9394C42.9332 15.091 43.5252 15.164 44.1919 15.164Z" fill="white"/>
<path d="M52.9743 15.164C53.6392 15.164 54.1246 15.0798 54.4304 14.9113C54.7344 14.7447 54.8873 14.4546 54.8873 14.0466C54.8873 13.6666 54.7237 13.3541 54.3984 13.1051C54.073 12.8562 53.5343 12.5867 52.7876 12.2947C52.329 12.1206 51.9094 11.9335 51.5289 11.7369C51.1467 11.5404 50.8178 11.3102 50.5404 11.0482C50.2631 10.7861 50.0444 10.4679 49.8862 10.0955C49.7262 9.72301 49.648 9.26631 49.648 8.72727C49.648 7.67538 50.016 6.8481 50.7502 6.24167C51.4845 5.63524 52.4836 5.33203 53.7459 5.33203C54.3841 5.33203 54.9939 5.3938 55.5771 5.51733C56.1584 5.64273 56.5958 5.76252 56.8873 5.87856L56.4304 8.02351C56.1531 7.8925 55.7993 7.77084 55.3708 7.66228C54.9406 7.55185 54.441 7.49757 53.8739 7.49757C53.3601 7.49757 52.9441 7.58928 52.6259 7.77084C52.3076 7.95426 52.1476 8.23502 52.1476 8.61497C52.1476 8.80401 52.1796 8.97246 52.2401 9.11845C52.3023 9.26444 52.4107 9.40108 52.5618 9.52461C52.7147 9.64814 52.9156 9.77167 53.1645 9.8952C53.4134 10.0206 53.7192 10.1479 54.0801 10.2789C54.6775 10.5129 55.1824 10.7431 55.5984 10.9695C56.0144 11.196 56.3575 11.4506 56.6278 11.7351C56.898 12.0196 57.0953 12.3452 57.2198 12.7083C57.3442 13.0733 57.4065 13.5113 57.4065 14.0223C57.4065 15.1172 57.0224 15.9464 56.2526 16.506C55.4828 17.0675 54.3841 17.3483 52.9547 17.3483C51.9983 17.3483 51.2285 17.264 50.6471 17.0974C50.064 16.929 49.6551 16.7942 49.4204 16.6913L49.8578 14.479C50.2329 14.6399 50.6791 14.7934 51.2 14.9394C51.7174 15.091 52.3094 15.164 52.9743 15.164Z" fill="white"/>
<path d="M61.572 2.26834C61.572 2.76434 61.4191 3.15739 61.1133 3.45125C60.8093 3.74323 60.4484 3.88922 60.0324 3.88922C59.6021 3.88922 59.2359 3.74323 58.9301 3.45125C58.6243 3.15926 58.4714 2.76434 58.4714 2.26834C58.4714 1.75737 58.6243 1.35683 58.9301 1.06297C59.2341 0.770991 59.6021 0.625 60.0324 0.625C60.4484 0.625 60.8093 0.770991 61.1133 1.06297C61.4209 1.35496 61.572 1.7555 61.572 2.26834ZM61.3018 17.0696H58.7843V5.61679H61.3018V17.0696Z" fill="white"/>
<path d="M62.5229 11.3982C62.5229 10.3912 62.6634 9.50776 62.9479 8.74786C63.2323 7.98795 63.611 7.35719 64.0821 6.85371C64.5532 6.35023 65.0937 5.97028 65.7053 5.71573C66.3151 5.46118 66.9391 5.33203 67.5773 5.33203C69.0743 5.33203 70.2423 5.82054 71.0815 6.79943C71.9206 7.77832 72.3402 9.23637 72.3402 11.1792C72.3402 11.3252 72.3366 11.4899 72.3295 11.6714C72.3224 11.8549 72.3117 12.0177 72.2975 12.1637H65.1221C65.1915 13.0827 65.499 13.7958 66.0466 14.2993C66.5942 14.8028 67.3889 15.0554 68.4271 15.0554C69.0369 15.0554 69.5952 14.9974 70.1019 14.8795C70.6068 14.7635 71.0068 14.6381 71.2984 14.507L71.6308 16.6744C71.4921 16.7474 71.3019 16.8242 71.0583 16.9047C70.8148 16.9851 70.5392 17.0581 70.2263 17.1236C69.9134 17.1892 69.5774 17.2453 69.2183 17.2884C68.8574 17.3314 68.4912 17.3539 68.116 17.3539C67.1596 17.3539 66.3275 17.2041 65.6199 16.9065C64.9124 16.6071 64.331 16.1916 63.8723 15.6581C63.4136 15.1247 63.0759 14.4977 62.8536 13.7752C62.6332 13.0509 62.5229 12.2591 62.5229 11.3982ZM69.8227 10.2153C69.8227 9.85028 69.773 9.50402 69.677 9.1746C69.5792 8.84706 69.437 8.56069 69.2503 8.32111C69.0636 8.07967 68.8343 7.89062 68.564 7.75212C68.2938 7.61362 67.972 7.54436 67.5969 7.54436C67.2093 7.54436 66.8698 7.6211 66.5782 7.77458C66.2866 7.92806 66.0413 8.1302 65.8404 8.37726C65.6395 8.6262 65.483 8.91069 65.3728 9.23075C65.2608 9.55081 65.1844 9.88023 65.1435 10.2153H69.8227Z" fill="white"/>
<path d="M79.9424 8.0048C79.7344 7.93181 79.4464 7.85507 79.0784 7.77458C78.7104 7.69597 78.2855 7.6548 77.8001 7.6548C77.5228 7.6548 77.2277 7.68474 76.9165 7.74276C76.6054 7.80079 76.3867 7.85319 76.2623 7.89624V17.0694H73.7449V6.16493C74.2302 5.97589 74.8365 5.79621 75.5654 5.62963C76.2925 5.46118 77.1014 5.37695 77.9886 5.37695C78.1539 5.37695 78.3495 5.38818 78.5699 5.41064C78.7922 5.4331 79.0126 5.46305 79.2348 5.49861C79.4571 5.53605 79.6722 5.5791 79.8802 5.62963C80.0882 5.68204 80.2553 5.72883 80.3798 5.77188L79.9424 8.0048Z" fill="white"/>
<path d="M99.0186 2.26834C99.0186 2.76434 98.8657 3.15739 98.5599 3.45125C98.2559 3.74323 97.8949 3.88922 97.4789 3.88922C97.0487 3.88922 96.6824 3.74323 96.3766 3.45125C96.0709 3.15926 95.918 2.76434 95.918 2.26834C95.918 1.75737 96.0709 1.35683 96.3766 1.06297C96.6807 0.770991 97.0487 0.625 97.4789 0.625C97.8949 0.625 98.2559 0.770991 98.5599 1.06297C98.8657 1.35496 99.0186 1.7555 99.0186 2.26834ZM98.7483 17.0696H96.2309V5.61679H98.7483V17.0696Z" fill="white"/>
<path d="M106.679 8.0048C106.471 7.93181 106.183 7.85507 105.815 7.77458C105.447 7.69597 105.023 7.6548 104.537 7.6548C104.26 7.6548 103.965 7.68474 103.654 7.74276C103.342 7.80079 103.124 7.85319 102.999 7.89624V17.0694H100.482V6.16493C100.967 5.97589 101.575 5.79621 102.302 5.62963C103.03 5.46118 103.838 5.37695 104.726 5.37695C104.891 5.37695 105.087 5.38818 105.307 5.41064C105.529 5.4331 105.75 5.46305 105.972 5.49861C106.194 5.53605 106.409 5.5791 106.617 5.62963C106.825 5.68204 106.992 5.72883 107.117 5.77188L106.679 8.0048Z" fill="white"/>
<path d="M107.117 11.3982C107.117 10.3912 107.257 9.50776 107.542 8.74786C107.826 7.98795 108.205 7.35719 108.676 6.85371C109.147 6.35023 109.687 5.97028 110.299 5.71573C110.909 5.46118 111.533 5.33203 112.171 5.33203C113.668 5.33203 114.836 5.82054 115.675 6.79943C116.514 7.77832 116.934 9.23637 116.934 11.1792C116.934 11.3252 116.93 11.4899 116.923 11.6714C116.916 11.8549 116.905 12.0177 116.891 12.1637H109.716C109.785 13.0827 110.093 13.7958 110.64 14.2993C111.188 14.8028 111.981 15.0554 113.021 15.0554C113.631 15.0554 114.189 14.9974 114.696 14.8795C115.201 14.7635 115.601 14.6381 115.892 14.507L116.225 16.6744C116.086 16.7474 115.896 16.8242 115.652 16.9047C115.409 16.9851 115.133 17.0581 114.82 17.1236C114.507 17.1892 114.171 17.2453 113.812 17.2884C113.451 17.3314 113.085 17.3539 112.71 17.3539C111.753 17.3539 110.921 17.2041 110.214 16.9065C109.508 16.6071 108.925 16.1916 108.466 15.6581C108.007 15.1247 107.67 14.4977 107.447 13.7752C107.227 13.0509 107.117 12.2591 107.117 11.3982ZM114.417 10.2153C114.417 9.85028 114.367 9.50402 114.271 9.1746C114.173 8.84706 114.031 8.56069 113.844 8.32111C113.657 8.07967 113.428 7.89062 113.158 7.75212C112.888 7.61362 112.566 7.54436 112.191 7.54436C111.803 7.54436 111.464 7.6211 111.172 7.77458C110.88 7.92806 110.635 8.1302 110.434 8.37726C110.233 8.6262 110.077 8.91069 109.967 9.23075C109.855 9.55081 109.778 9.88023 109.737 10.2153H114.417Z" fill="white"/>
<path d="M117.72 11.3537C117.72 10.5076 117.844 9.71593 118.093 8.97848C118.342 8.24104 118.699 7.60279 119.165 7.06188C119.629 6.52283 120.194 6.09796 120.861 5.791C121.526 5.48404 122.275 5.33057 123.107 5.33057C124.132 5.33057 125.103 5.52709 126.019 5.92202L125.478 8.08943C125.187 7.95841 124.858 7.84986 124.49 7.76001C124.122 7.67205 123.731 7.629 123.315 7.629C122.33 7.629 121.581 7.95467 121.067 8.60227C120.554 9.25175 120.298 10.1689 120.298 11.3499C120.298 12.4879 120.541 13.39 121.025 14.0545C121.51 14.7189 122.328 15.0502 123.478 15.0502C123.908 15.0502 124.331 15.0072 124.748 14.9192C125.164 14.8312 125.524 14.7208 125.828 14.5898L126.182 16.7797C125.905 16.9257 125.485 17.0567 124.924 17.1727C124.362 17.2888 123.782 17.3468 123.187 17.3468C122.257 17.3468 121.45 17.1971 120.763 16.8995C120.077 16.6 119.508 16.1845 119.058 15.651C118.607 15.1176 118.271 14.4831 118.05 13.7457C117.83 13.0157 117.72 12.2165 117.72 11.3537Z" fill="white"/>
<path d="M127.409 2.59569L129.926 2.15771V5.61659H133.795V7.82705H129.926V12.4913C129.926 13.4103 130.065 14.0673 130.342 14.4603C130.62 14.8552 131.091 15.0518 131.756 15.0518C132.212 15.0518 132.62 15.0012 132.972 14.8983C133.325 14.7972 133.606 14.7018 133.814 14.6138L134.23 16.7157C133.939 16.8467 133.558 16.9815 133.085 17.12C132.614 17.2585 132.06 17.3277 131.421 17.3277C130.644 17.3277 129.997 17.2173 129.476 16.9983C128.957 16.7793 128.543 16.4611 128.239 16.0456C127.933 15.6301 127.72 15.1266 127.594 14.5352C127.469 13.9437 127.407 13.2699 127.407 12.51V2.59569H127.409Z" fill="white"/>
<path d="M28.1095 6.06806C27.713 5.07607 27.1352 4.23755 26.3939 3.57872C25.6703 2.93486 24.7991 2.45945 23.8071 2.15998C22.8755 1.8811 21.8461 1.74072 20.7439 1.74072C20.6834 1.74072 14.5108 1.7557 13.8085 1.79687L13.9525 4.52953L20.2905 11.2021L25.1298 6.10549C25.3645 6.39935 25.5565 6.73812 25.7129 7.1293C25.9601 7.7507 26.0863 8.52745 26.0863 9.44084C26.0863 10.3299 25.9601 11.0935 25.7129 11.7168C25.4694 12.3232 25.1405 12.808 24.7067 13.2029C24.2604 13.6091 23.7271 13.9067 23.0729 14.1107C22.3759 14.3297 21.5812 14.4401 20.7101 14.4401C19.9759 14.4401 15.0726 14.4158 14.5535 14.3802L13.7783 17.111C14.4681 17.1597 20.6497 17.1765 20.7101 17.1765C21.8319 17.1765 22.8773 17.0268 23.8124 16.7329C24.8116 16.4222 25.6845 15.9318 26.4045 15.2749C27.1388 14.6086 27.7112 13.7682 28.1077 12.7781C28.4917 11.8197 28.6873 10.6967 28.6873 9.44084C28.6873 8.1606 28.4935 7.02636 28.1095 6.06806ZM17.59 4.49023C19.0141 4.48274 20.3883 4.479 20.7439 4.479C21.4799 4.479 22.159 4.55948 22.7777 4.71296L20.2905 7.33332L17.59 4.49023Z" fill="white"/>
<path d="M10.6903 13.1336H0.77002L1.46693 10.6724H10.6903V13.1336Z" fill="white"/>
<path d="M10.6904 8.20923H3.98438L4.68129 5.74609H10.6904V8.20923Z" fill="white"/>
</svg>
